<?xml version="1.0" standalone="no"?>
<!DOCTYPE svg PUBLIC "-//W3C//DTD SVG 20010904//EN"
 "http://www.w3.org/TR/2001/REC-SVG-20010904/DTD/svg10.dtd">
<svg version="1.0" xmlns="http://www.w3.org/2000/svg"
 width="1024.000000pt" height="1024.000000pt" viewBox="0 0 1024.000000 1024.000000"
 preserveAspectRatio="xMidYMid meet">

<g transform="translate(0.000000,1024.000000) scale(0.100000,-0.100000)"
fill="#000000" stroke="none">
<path d="M4800 9381 c-36 -3 90 -6 280 -6 350 -1 488 -10 710 -50 47 -8 103
-17 125 -20 32 -4 29 -2 -15 10 -77 20 -320 53 -479 65 -140 10 -507 11 -621
1z"/>
<path d="M4547 9355 c-117 -16 -359 -63 -367 -72 -6 -6 7 -4 165 27 61 11 173
29 250 40 77 10 120 18 95 18 -25 0 -89 -6 -143 -13z"/>
<path d="M6085 9266 c325 -81 766 -261 1099 -449 331 -187 738 -518 992 -807
280 -320 450 -571 634 -940 350 -699 479 -1486 384 -2325 -39 -345 -152 -781
-281 -1085 -143 -338 -406 -775 -624 -1041 -240 -292 -405 -453 -675 -660
-245 -187 -625 -407 -940 -542 -502 -215 -1115 -323 -1704 -302 -168 6 -233
11 -400 31 -30 4 -52 4 -49 1 12 -14 265 -36 475 -43 411 -12 822 36 1219 143
265 71 530 179 814 331 601 322 1016 681 1403 1212 134 185 342 538 436 740
308 668 431 1497 336 2272 -72 596 -304 1216 -647 1733 -143 215 -304 411
-507 619 -471 480 -991 800 -1695 1042 -135 47 -351 105 -382 103 -10 0 41
-15 112 -33z"/>
<path d="M4865 9281 c-33 -3 84 -6 260 -6 251 0 345 -4 435 -17 182 -27 215
-31 210 -25 -3 3 -73 16 -155 28 -120 17 -203 22 -420 24 -148 2 -297 0 -330
-4z"/>
<path d="M4110 9270 c-14 -4 -67 -21 -118 -36 -50 -15 -90 -29 -88 -31 2 -2
63 14 137 36 74 22 125 40 114 40 -11 0 -31 -4 -45 -9z"/>
<path d="M4733 9263 c15 -2 37 -2 50 0 12 2 0 4 -28 4 -27 0 -38 -2 -22 -4z"/>
<path d="M4485 9235 c-195 -32 -421 -83 -412 -92 3 -2 40 5 83 16 117 29 231
51 399 76 83 13 132 23 110 23 -22 0 -103 -10 -180 -23z"/>
<path d="M5805 9220 c17 -4 41 -8 55 -8 22 0 22 1 -5 8 -16 4 -41 8 -55 8 -22
0 -22 -1 5 -8z"/>
<path d="M6027 9175 c127 -30 249 -69 598 -191 112 -39 368 -164 550 -269 269
-155 647 -458 862 -693 169 -185 455 -581 588 -816 37 -65 113 -211 169 -325
109 -221 129 -280 220 -646 48 -193 97 -466 118 -660 26 -241 13 -667 -28
-958 -9 -60 -13 -111 -11 -113 6 -6 34 181 49 326 18 185 16 618 -5 794 -34
286 -126 713 -213 986 -27 87 -174 392 -278 580 -144 257 -432 655 -619 854
-226 241 -560 511 -827 667 -104 61 -330 183 -395 213 -60 27 -455 169 -570
204 -114 36 -306 82 -332 81 -10 0 46 -15 124 -34z"/>
<path d="M3735 9151 c-167 -61 -374 -151 -495 -214 -545 -285 -1056 -726
-1416 -1222 -90 -123 -189 -270 -223 -330 -35 -62 2 -12 100 135 195 294 305
427 548 670 455 454 942 761 1535 967 56 19 103 37 105 39 13 12 -39 -3 -154
-45z"/>
<path d="M4015 9133 c-69 -17 -314 -104 -450 -159 -289 -118 -685 -342 -881
-500 -394 -318 -660 -606 -930 -1006 -216 -321 -356 -620 -493 -1048 -52 -166
-114 -465 -153 -740 -16 -117 -16 -642 1 -845 36 -439 185 -973 377 -1358 129
-257 217 -399 392 -632 161 -215 274 -344 469 -535 301 -297 497 -450 772
-602 187 -103 354 -188 368 -187 5 0 -35 22 -87 48 -141 71 -406 218 -475 264
-243 163 -588 475 -824 746 -100 115 -317 403 -399 530 -192 297 -380 731
-467 1081 -95 379 -123 596 -129 1015 -5 312 3 425 44 672 100 602 300 1119
611 1585 78 117 241 334 309 413 196 226 571 568 757 690 359 237 684 395
1058 515 179 58 182 58 165 58 -8 0 -24 -3 -35 -5z"/>
<path d="M4528 8819 c-162 -17 -259 -69 -408 -220 -63 -63 -128 -125 -145
-137 -27 -20 -27 -21 -5 -11 15 5 81 66 148 133 83 84 141 134 182 155 82 44
196 71 298 71 47 0 83 2 81 4 -10 9 -90 11 -151 5z"/>
<path d="M5540 8786 c-52 -19 -120 -43 -150 -54 -71 -27 -217 -46 -295 -39
-56 4 -259 64 -315 92 -14 7 -41 15 -60 19 -28 5 -25 2 15 -13 277 -103 325
-115 450 -107 115 7 158 18 309 76 60 23 136 45 170 49 57 8 58 9 16 10 -28 0
-80 -12 -140 -33z"/>
<path d="M5788 8804 c134 -29 193 -68 363 -236 204 -201 250 -220 531 -216
170 3 188 1 251 -20 135 -47 234 -149 329 -339 94 -188 144 -242 333 -367 80
-53 258 -150 220 -121 -11 9 -58 36 -105 61 -100 53 -246 159 -311 226 -30 31
-72 98 -119 189 -41 78 -93 166 -117 194 -59 73 -150 139 -230 167 -62 21 -84
23 -268 23 -169 0 -208 3 -253 19 -73 25 -166 97 -292 226 -73 75 -125 118
-170 143 -71 38 -159 68 -199 66 -14 -1 2 -7 37 -15z"/>
<path d="M4503 8729 c-61 -10 -145 -42 -187 -71 -17 -12 -78 -68 -136 -124
-106 -102 -245 -202 -310 -222 -62 -19 -192 -33 -355 -39 -88 -2 -162 -6 -164
-9 -2 -2 51 -4 118 -4 137 0 349 23 409 44 74 26 234 141 300 215 106 119 214
184 327 197 30 4 55 11 55 15 0 5 -1 8 -2 8 -2 -1 -26 -5 -55 -10z"/>
<path d="M4628 8720 c35 -5 119 -27 185 -49 231 -76 347 -95 442 -71 17 4 -8
5 -55 3 -99 -6 -155 5 -370 73 -85 27 -170 48 -205 50 l-60 3 63 -9z"/>
<path d="M5595 8705 c-70 -16 -276 -83 -258 -84 7 -1 70 18 140 41 117 38 137
41 238 42 105 1 114 -1 175 -31 49 -24 91 -58 170 -138 102 -103 250 -222 250
-201 0 2 -17 15 -37 27 -21 13 -97 80 -170 151 -73 70 -150 138 -171 152 -86
54 -211 69 -337 41z"/>
<path d="M5298 8613 c7 -3 16 -2 19 1 4 3 -2 6 -13 5 -11 0 -14 -3 -6 -6z"/>
<path d="M4487 8462 c-17 -3 -63 -79 -54 -88 2 -3 10 9 17 26 21 50 44 61 98
45 24 -8 41 -10 36 -5 -13 12 -76 27 -97 22z"/>
<path d="M5070 8450 c-11 -7 -5 -8 20 -4 43 8 51 14 19 14 -13 0 -31 -5 -39
-10z"/>
<path d="M5169 8435 c31 -14 33 -17 26 -52 -7 -40 -30 -70 -55 -73 -30 -4 -49
0 -64 16 -9 8 -16 11 -16 6 0 -13 21 -28 49 -35 49 -12 101 44 101 109 0 17
-34 44 -56 44 -13 -1 -8 -6 15 -15z"/>
<path d="M5671 8424 c-17 -14 -31 -30 -31 -34 0 -5 13 5 29 21 72 71 180 -8
140 -103 -7 -16 -22 -34 -33 -38 -16 -7 -17 -9 -4 -9 9 -1 26 11 37 25 37 47
23 117 -29 147 -40 24 -74 21 -109 -9z"/>
<path d="M3880 8414 c-19 -9 -46 -20 -60 -24 -14 -5 -18 -9 -9 -9 17 -1 109
37 109 44 0 6 0 7 -40 -11z"/>
<path d="M3695 8370 c-33 -4 -116 -9 -185 -9 -68 -1 -145 -6 -169 -12 -144
-32 -319 -191 -407 -370 -19 -41 -50 -103 -67 -138 -20 -40 -59 -93 -102 -138
-39 -40 -67 -73 -64 -73 4 0 38 34 77 75 60 62 81 95 135 207 35 73 82 156
104 183 79 100 165 175 243 213 l75 36 200 7 c110 5 214 12 230 18 36 11 15
11 -70 1z"/>
<path d="M4597 8331 c-4 -17 -3 -21 5 -13 5 5 8 16 6 23 -3 8 -7 3 -11 -10z"/>
<path d="M5641 8337 c-2 -41 50 -88 96 -86 10 0 -2 8 -26 17 -35 13 -47 24
-57 52 -7 19 -13 27 -13 17z"/>
<path d="M4430 8332 c0 -11 27 -42 37 -42 3 0 -2 10 -13 23 -10 12 -20 24 -21
26 -2 2 -3 -1 -3 -7z"/>
<path d="M6340 8315 c14 -8 30 -14 35 -14 6 0 -1 6 -15 14 -14 8 -29 14 -35
14 -5 0 1 -6 15 -14z"/>
<path d="M4502 8278 c15 -5 34 -6 42 -1 10 6 1 9 -27 9 -38 1 -40 0 -15 -8z"/>
<path d="M6433 8283 c9 -2 23 -2 30 0 6 3 -1 5 -18 5 -16 0 -22 -2 -12 -5z"/>
<path d="M6515 8281 c-22 -4 23 -5 100 -3 262 8 360 -37 518 -233 22 -27 63
-99 92 -160 59 -124 94 -169 186 -238 40 -30 47 -34 19 -10 -108 91 -136 128
-203 264 -55 112 -78 148 -141 216 -124 133 -196 164 -396 168 -74 2 -153 0
-175 -4z"/>
<path d="M3293 8240 c-46 -28 -88 -64 -166 -144 -65 -67 -102 -129 -163 -275
-10 -24 -25 -50 -32 -58 -8 -8 -12 -16 -9 -20 9 -8 44 54 73 129 50 132 157
262 287 349 61 40 68 55 10 19z"/>
<path d="M6214 8228 c-19 -23 -19 -23 2 -5 40 33 124 11 124 -33 0 -35 -24
-73 -55 -86 -16 -7 -24 -13 -17 -14 24 0 52 20 67 50 22 42 19 66 -11 89 -36
28 -86 27 -110 -1z"/>
<path d="M3965 8233 c70 -8 93 -50 60 -113 -13 -24 -22 -30 -49 -30 -19 0 -42
3 -51 6 -22 9 -46 59 -39 81 5 17 5 17 -6 1 -8 -13 -7 -25 5 -47 19 -37 43
-51 89 -51 30 0 40 6 56 33 42 68 12 128 -62 125 l-43 -1 40 -4z"/>
<path d="M3899 8213 c-13 -16 -12 -17 4 -4 9 7 17 15 17 17 0 8 -8 3 -21 -13z"/>
<path d="M4968 8183 c68 -2 176 -2 240 0 64 1 9 3 -123 3 -132 0 -185 -2 -117
-3z"/>
<path d="M4665 8159 c-110 -23 -315 -81 -260 -73 22 3 77 16 123 30 80 23 211
49 282 57 30 3 28 4 -10 5 -25 0 -85 -8 -135 -19z"/>
<path d="M5400 8170 c36 -5 81 -11 100 -14 28 -5 31 -4 13 4 -12 5 -57 11
-100 14 l-78 5 65 -9z"/>
<path d="M6171 8162 c-1 -25 40 -72 61 -72 7 1 1 7 -14 16 -16 8 -31 28 -37
47 -7 25 -9 27 -10 9z"/>
<path d="M5565 8140 c17 -4 39 -8 50 -8 16 0 15 2 -5 8 -14 4 -36 8 -50 8 -22
0 -22 -1 5 -8z"/>
<path d="M5730 8104 c52 -13 99 -22 105 -21 10 4 -173 48 -190 46 -5 -1 33
-12 85 -25z"/>
<path d="M4995 8100 c-77 -4 -53 -6 99 -7 109 -1 197 -1 195 1 -9 7 -201 11
-294 6z"/>
<path d="M4715 8075 c-94 -16 -55 -17 75 0 79 9 91 13 50 13 -30 0 -86 -6
-125 -13z"/>
<path d="M5360 8080 c36 -4 97 -10 135 -13 l70 -6 -80 14 c-44 7 -105 13 -135
13 l-55 -1 65 -7z"/>
<path d="M4215 8045 c-97 -36 -216 -89 -175 -79 14 4 37 12 51 20 36 18 197
75 239 84 34 8 34 8 5 8 -16 0 -70 -15 -120 -33z"/>
<path d="M5858 8073 c7 -3 16 -2 19 1 4 3 -2 6 -13 5 -11 0 -14 -3 -6 -6z"/>
<path d="M5891 8066 c2 -2 40 -14 85 -25 44 -11 107 -32 138 -46 32 -14 60
-24 62 -22 8 8 -144 67 -209 82 -72 16 -83 17 -76 11z"/>
<path d="M4575 8054 c-187 -39 -464 -119 -452 -130 3 -3 49 10 103 29 86 30
214 63 374 96 25 5 34 9 20 9 -14 0 -34 -2 -45 -4z"/>
<path d="M5610 8048 c141 -29 336 -81 409 -107 47 -17 86 -29 88 -27 17 17
-461 149 -525 145 -9 -1 3 -5 28 -11z"/>
<path d="M6756 7989 c-14 -11 -26 -25 -26 -32 0 -6 13 1 28 16 36 35 81 36
119 3 24 -20 28 -32 27 -71 -1 -62 -27 -88 -85 -88 -53 0 -88 35 -90 91 -2 32
-3 33 -6 8 -7 -42 15 -83 52 -100 41 -20 49 -20 91 0 60 29 69 116 17 168 -33
33 -89 35 -127 5z"/>
<path d="M3348 7979 c-14 -11 -29 -33 -33 -49 -9 -40 10 -94 38 -108 37 -17
58 -22 52 -12 -3 6 -14 10 -24 10 -25 0 -51 32 -57 72 -5 27 -1 40 20 65 15
18 39 34 54 36 26 4 26 4 2 5 -14 1 -37 -8 -52 -19z"/>
<path d="M3458 7983 c31 -15 36 -25 45 -83 3 -17 5 -12 6 13 1 29 -5 44 -25
62 -15 14 -34 25 -43 25 -9 0 -1 -8 17 -17z"/>
<path d="M6240 7940 c30 -16 60 -29 65 -29 6 0 -15 13 -45 29 -30 16 -59 29
-65 29 -5 0 15 -13 45 -29z"/>
<path d="M3895 7916 c-182 -79 -285 -143 -515 -316 -144 -108 -291 -246 -391
-365 -18 -22 27 22 100 98 136 140 306 278 504 408 75 50 277 155 397 207 14
6 21 11 15 11 -5 0 -55 -19 -110 -43z"/>
<path d="M4803 7920 c-24 -10 -43 -22 -43 -25 0 -3 14 2 31 10 17 9 49 20 72
25 35 7 37 8 12 9 -16 0 -49 -8 -72 -19z"/>
<path d="M4928 7933 c6 -2 18 -2 25 0 6 3 1 5 -13 5 -14 0 -19 -2 -12 -5z"/>
<path d="M5006 7911 c23 -10 52 -22 65 -25 13 -3 0 5 -30 19 -29 14 -59 25
-65 25 -6 0 7 -9 30 -19z"/>
<path d="M4035 7894 c-150 -61 -359 -177 -509 -284 -112 -80 -209 -159 -220
-178 -5 -10 10 0 33 21 66 59 231 179 333 243 78 48 218 119 408 207 53 24 23
18 -45 -9z"/>
<path d="M5240 7894 c-25 -8 -67 -15 -95 -15 -35 -1 -44 -4 -30 -9 22 -9 57
-4 129 16 62 17 189 17 237 0 20 -7 59 -32 87 -55 38 -33 60 -44 94 -47 l43
-3 -44 9 c-28 6 -62 25 -94 51 -27 23 -66 48 -86 55 -48 17 -185 16 -241 -2z"/>
<path d="M6121 7906 c2 -2 42 -20 89 -41 194 -84 498 -266 650 -388 120 -96
359 -338 440 -444 30 -40 56 -70 58 -68 9 9 -161 208 -272 318 -210 209 -366
322 -681 495 -141 77 -314 155 -284 128z"/>
<path d="M6325 7903 c6 -5 48 -25 95 -43 98 -39 260 -141 440 -277 256 -194
572 -553 747 -849 96 -162 130 -231 206 -424 132 -336 164 -488 181 -865 2
-44 2 3 -1 105 -5 270 -43 441 -168 756 -107 273 -213 461 -400 714 -131 176
-371 424 -535 551 -231 180 -364 260 -560 336 -10 4 -12 3 -5 -4z"/>
<path d="M4723 7867 c-4 -7 -25 -26 -46 -41 -32 -25 -44 -28 -88 -24 -30 3
-45 2 -37 -3 19 -13 86 -11 111 3 32 16 94 78 80 78 -7 0 -16 -6 -20 -13z"/>
<path d="M3478 7845 c-10 -13 -28 -26 -40 -28 -21 -4 -21 -4 -2 -6 19 -1 73
44 63 53 -2 2 -12 -6 -21 -19z"/>
<path d="M4914 7863 c6 -6 31 -16 91 -37 11 -4 7 0 -9 10 -31 17 -93 38 -82
27z"/>
<path d="M5299 7851 c-26 -10 -57 -26 -70 -36 -27 -19 -25 -18 46 14 94 43
123 38 215 -39 25 -20 54 -41 65 -47 30 -16 124 -23 170 -14 33 6 25 8 -45 8
-98 0 -124 9 -188 62 -54 44 -103 71 -129 71 -10 -1 -39 -9 -64 -19z"/>
<path d="M4808 7831 c-25 -16 -49 -35 -54 -43 -4 -7 1 -6 12 4 10 9 39 28 64
42 25 14 40 26 34 26 -5 0 -31 -13 -56 -29z"/>
<path d="M4280 7828 c-18 -13 -58 -52 -88 -88 -54 -63 -54 -63 19 12 41 42 85
79 99 82 14 3 34 7 45 9 12 3 8 5 -11 6 -17 0 -46 -9 -64 -21z"/>
<path d="M4435 7836 c33 -8 69 -17 80 -20 11 -4 5 1 -13 9 -18 9 -54 18 -80
20 -44 5 -43 4 13 -9z"/>
<path d="M5895 7830 c103 -17 122 -27 181 -98 30 -37 66 -73 80 -80 15 -8 65
-18 113 -22 159 -16 184 -32 276 -172 59 -88 92 -111 200 -137 156 -38 208
-82 221 -189 12 -100 43 -135 164 -190 84 -37 123 -77 148 -149 11 -32 21 -49
21 -38 1 36 -46 121 -80 146 -18 13 -69 42 -113 64 -44 22 -88 51 -98 65 -10
14 -23 54 -29 89 -20 130 -64 170 -232 212 -47 11 -99 29 -115 39 -17 10 -56
57 -88 105 -89 133 -114 148 -276 165 -47 4 -95 13 -105 19 -11 5 -46 40 -78
77 -67 76 -99 92 -188 99 l-62 4 60 -9z"/>
<path d="M5808 7823 c7 -3 16 -2 19 1 4 3 -2 6 -13 5 -11 0 -14 -3 -6 -6z"/>
<path d="M5740 7805 c-19 -7 -28 -14 -20 -14 8 0 29 6 45 14 39 17 21 18 -25
0z"/>
<path d="M5070 7796 c14 -8 43 -15 65 -14 l40 1 -45 7 c-25 4 -54 10 -65 14
-13 5 -11 2 5 -8z"/>
<path d="M4332 7754 c-31 -15 -71 -48 -103 -85 -57 -66 -73 -76 -139 -95 -31
-8 -37 -12 -20 -13 44 -1 103 34 156 92 63 69 118 107 154 107 14 0 60 -11
100 -25 40 -14 85 -25 99 -24 19 1 15 4 -14 9 -22 5 -70 20 -108 34 -37 14
-69 26 -70 26 -2 0 -26 -12 -55 -26z"/>
<path d="M5795 7750 c-19 -5 -6 -6 35 -3 43 3 79 0 107 -10 24 -8 40 -11 37
-6 -14 24 -118 35 -179 19z"/>
<path d="M4687 7733 c-4 -3 -24 -9 -44 -13 -35 -7 -35 -8 -8 -8 17 -1 41 5 55
13 14 8 20 14 14 15 -6 0 -14 -3 -17 -7z"/>
<path d="M2863 7681 c-71 -64 -203 -146 -298 -185 -49 -21 -111 -51 -136 -67
-111 -71 -202 -207 -218 -324 -4 -30 -5 -55 -1 -55 4 0 10 24 13 54 11 104 80
217 180 295 31 24 104 63 162 87 110 45 255 137 314 198 45 47 37 45 -16 -3z"/>
<path d="M4113 7669 c-5 -5 -32 -14 -59 -19 l-49 -9 49 3 c27 2 55 11 64 20 9
9 14 16 11 16 -3 0 -10 -5 -16 -11z"/>
<path d="M6080 7611 c43 -40 74 -61 90 -61 215 -3 236 -11 287 -105 18 -33 61
-86 95 -118 50 -47 74 -61 130 -78 38 -12 72 -19 75 -16 3 3 -8 9 -23 12 -89
20 -126 39 -182 93 -33 31 -71 80 -85 109 -43 84 -103 116 -211 113 -98 -3
-103 -2 -173 56 l-68 56 65 -61z"/>
<path d="M3968 7633 c6 -2 18 -2 25 0 6 3 1 5 -13 5 -14 0 -19 -2 -12 -5z"/>
<path d="M3860 7620 c-9 -6 -10 -10 -3 -10 6 0 15 5 18 10 8 12 4 12 -15 0z"/>
<path d="M7277 7609 c44 -13 67 -50 59 -92 -4 -23 -3 -28 4 -17 18 27 10 61
-19 91 -17 16 -39 29 -53 28 -19 -1 -17 -3 9 -10z"/>
<path d="M2913 7600 c-33 -14 -56 -55 -48 -87 7 -30 32 -63 48 -63 5 0 0 8
-11 18 -52 43 -32 110 38 129 28 7 36 11 20 12 -14 0 -35 -4 -47 -9z"/>
<path d="M7206 7586 c-16 -13 -26 -30 -23 -37 4 -11 6 -11 6 -1 1 7 13 24 29
37 35 31 26 32 -12 1z"/>
<path d="M2545 7575 c-27 -13 -45 -23 -40 -24 6 0 33 11 60 24 28 13 46 23 40
24 -5 0 -32 -11 -60 -24z"/>
<path d="M3004 7584 c39 -48 17 -119 -40 -130 -19 -3 -33 -9 -30 -11 2 -3 19
-2 36 2 60 13 84 98 38 139 l-22 21 18 -21z"/>
<path d="M3782 7574 c-17 -14 -37 -35 -43 -47 -7 -16 -4 -15 14 6 13 16 37 37
53 48 16 10 25 19 19 19 -5 0 -25 -12 -43 -26z"/>
<path d="M7492 7584 c10 -10 20 -16 22 -13 3 3 -5 11 -17 18 -21 13 -21 12 -5
-5z"/>
<path d="M3875 7556 c-40 -18 -61 -43 -95 -114 -46 -97 -143 -163 -298 -202
-57 -15 -119 -71 -132 -121 -5 -21 -15 -57 -21 -80 -14 -53 -66 -109 -128
-139 -58 -27 -63 -38 -7 -15 85 36 144 116 161 218 7 43 52 100 92 115 16 6
60 20 98 31 121 35 195 96 255 209 44 85 78 105 167 100 34 -2 59 0 57 4 -8
13 -116 8 -149 -6z"/>
<path d="M2454 7535 c-10 -8 -14 -14 -9 -14 6 0 19 6 29 14 11 8 15 15 10 15
-6 0 -19 -7 -30 -15z"/>
<path d="M7182 7510 c0 -14 2 -19 5 -12 2 6 2 18 0 25 -3 6 -5 1 -5 -13z"/>
<path d="M7590 7526 c0 -2 50 -33 112 -68 124 -70 206 -138 245 -205 14 -24
28 -42 30 -39 12 11 -72 117 -124 157 -72 56 -263 168 -263 155z"/>
<path d="M2354 7471 c-83 -58 -162 -147 -203 -228 -36 -70 -51 -157 -51 -300
0 -56 -5 -126 -11 -155 -20 -97 -113 -238 -254 -388 -103 -110 -137 -167 -165
-276 -35 -138 -23 -277 41 -460 33 -93 43 -202 27 -289 -7 -35 -6 -37 4 -15 6
14 12 68 12 120 0 81 -5 108 -32 185 -62 176 -77 315 -47 444 26 110 70 184
176 296 100 107 193 236 230 320 18 40 23 78 30 224 9 186 16 226 57 306 30
60 147 183 214 226 42 28 56 39 45 39 -2 0 -35 -22 -73 -49z"/>
<path d="M3700 7470 c-6 -11 -8 -20 -6 -20 3 0 10 9 16 20 6 11 8 20 6 20 -3
0 -10 -9 -16 -20z"/>
<path d="M7190 7475 c0 -8 59 -35 78 -35 10 0 27 7 38 15 18 14 18 15 -6 6
-36 -13 -37 -13 -75 3 -19 8 -35 13 -35 11z"/>
<path d="M3196 7333 c-152 -149 -357 -412 -483 -618 -44 -73 -163 -300 -163
-311 0 -5 24 36 53 91 171 323 351 576 574 806 64 66 114 119 112 119 -2 0
-44 -39 -93 -87z"/>
<path d="M3555 7354 c-22 -7 -57 -15 -79 -19 -21 -3 -36 -8 -34 -11 8 -7 121
17 148 32 30 16 18 16 -35 -2z"/>
<path d="M1527 7263 c-242 -421 -419 -949 -481 -1433 -30 -230 -59 -754 -41
-738 5 4 7 33 6 64 -4 140 23 500 58 764 55 411 248 961 476 1358 20 34 34 62
31 62 -2 0 -24 -35 -49 -77z"/>
<path d="M3405 7320 c-3 -6 1 -7 9 -4 18 7 21 14 7 14 -6 0 -13 -4 -16 -10z"/>
<path d="M8033 7310 c21 -33 46 -103 57 -160 l9 -45 -4 52 c-4 56 -38 145 -63
165 -13 11 -13 9 1 -12z"/>
<path d="M3359 7283 c-13 -16 -12 -17 4 -4 16 13 21 21 13 21 -2 0 -10 -8 -17
-17z"/>
<path d="M2514 7214 c-32 -17 -64 -60 -64 -88 0 -17 37 -96 44 -96 3 0 12 -3
21 -6 9 -4 2 7 -14 23 -16 17 -33 41 -36 55 -15 59 49 124 113 114 45 -7 60
-21 73 -68 16 -59 -12 -109 -72 -126 l-44 -12 39 5 c46 5 71 26 86 71 13 40 0
91 -29 118 -27 24 -81 29 -117 10z"/>
<path d="M3297 7188 c-31 -86 -47 -142 -39 -133 11 12 63 168 58 173 -2 2 -11
-16 -19 -40z"/>
<path d="M6828 7190 c23 -16 44 -40 47 -52 3 -13 10 -45 15 -72 21 -98 70
-151 174 -190 38 -15 71 -25 73 -23 2 2 -28 16 -66 31 -116 45 -154 89 -173
198 -9 53 -17 69 -50 101 -21 20 -44 37 -50 37 -6 0 8 -13 30 -30z"/>
<path d="M7643 7204 c-48 -24 -68 -51 -68 -93 0 -52 27 -88 75 -101 98 -27
169 82 104 159 -14 17 -30 31 -34 31 -5 0 5 -13 21 -29 67 -68 10 -170 -86
-152 -40 8 -79 65 -71 106 6 30 50 75 73 75 6 0 15 5 18 10 8 13 6 13 -32 -6z"/>
<path d="M7985 7184 c3 -11 12 -77 20 -146 23 -202 96 -413 188 -548 17 -25
67 -83 110 -129 44 -46 97 -112 118 -145 21 -34 39 -56 39 -50 0 20 -83 129
-164 215 -82 87 -148 189 -193 299 -38 95 -81 276 -92 387 -5 56 -15 110 -21
120 -10 16 -10 16 -5 -3z"/>
<path d="M8098 7028 c6 -119 82 -356 146 -451 21 -33 76 -98 121 -146 141
-149 186 -234 206 -390 9 -68 9 -109 0 -167 -12 -84 -8 -116 6 -37 4 26 8 91
7 144 -2 171 -57 293 -194 434 -38 39 -93 105 -124 148 -48 67 -63 102 -106
234 -42 129 -50 167 -50 229 0 41 -4 74 -8 74 -4 0 -6 -33 -4 -72z"/>
<path d="M2855 7049 c-4 -6 -5 -12 -2 -15 2 -3 7 2 10 11 7 17 1 20 -8 4z"/>
<path d="M2202 6969 c-3 -96 -35 -257 -66 -324 -37 -80 -97 -160 -204 -269
-106 -109 -150 -178 -177 -283 -19 -71 -18 -215 1 -268 7 -22 11 -29 8 -15 -3
14 -8 68 -11 120 -9 176 39 294 177 430 102 101 166 183 208 266 41 81 74 247
69 345 l-3 74 -2 -76z"/>
<path d="M3235 7029 c-4 -6 -5 -12 -2 -15 2 -3 7 2 10 11 7 17 1 20 -8 4z"/>
<path d="M2815 6984 c-9 -15 -12 -23 -6 -20 11 7 35 46 28 46 -3 0 -12 -12
-22 -26z"/>
<path d="M3199 6993 c-13 -16 -12 -17 4 -4 9 7 17 15 17 17 0 8 -8 3 -21 -13z"/>
<path d="M3130 6960 c-8 -5 -10 -10 -5 -10 6 0 17 5 25 10 8 5 11 10 5 10 -5
0 -17 -5 -25 -10z"/>
<path d="M7370 6957 c0 -4 19 -31 43 -60 24 -29 78 -117 121 -195 43 -79 80
-141 82 -139 5 5 -131 251 -167 302 -38 55 -78 102 -79 92z"/>
<path d="M2779 6933 c-13 -16 -12 -17 4 -4 9 7 17 15 17 17 0 8 -8 3 -21 -13z"/>
<path d="M5340 6930 c-150 -6 -171 -10 -235 -35 -154 -63 -248 -138 -327 -260
-47 -72 -76 -165 -128 -405 -21 -102 -57 -266 -79 -365 -22 -99 -70 -315 -106
-480 -36 -165 -92 -415 -125 -555 -144 -618 -250 -1092 -250 -1113 0 -20 883
-12 985 9 150 30 323 143 408 266 48 69 69 131 117 341 56 247 92 403 150 647
27 118 73 319 100 445 69 318 102 461 159 697 56 234 142 603 170 731 l19 87
-347 -2 c-190 -1 -420 -4 -511 -8z m834 -40 c-7 -34 -48 -219 -114 -500 -17
-74 -48 -207 -70 -295 -54 -223 -96 -408 -126 -555 -14 -69 -36 -170 -49 -225
-44 -182 -217 -929 -226 -970 -51 -251 -81 -318 -191 -428 -86 -85 -203 -156
-265 -160 -15 -1 -31 -5 -34 -10 -15 -20 -159 -27 -562 -27 l-437 0 6 28 c3
15 12 52 19 82 7 30 20 91 30 135 21 98 62 277 75 325 5 19 30 128 55 242 25
114 47 213 50 220 3 7 11 42 19 78 36 165 163 740 266 1200 11 47 27 121 36
165 41 196 75 322 102 379 63 134 193 249 353 312 l74 28 450 6 c248 3 471 5
497 5 l48 0 -6 -35z"/>
<path d="M5300 5840 c0 -3 -115 -5 -256 -5 -218 0 -258 -2 -264 -15 -8 -15
-53 -201 -90 -370 -12 -52 -41 -177 -65 -276 -25 -100 -56 -235 -70 -299 -31
-143 -28 -150 55 -142 139 12 225 105 266 286 8 36 19 83 25 103 l9 37 273 3
272 3 67 37 c36 20 68 36 70 35 1 -1 2 0 1 2 -1 2 7 16 18 32 35 50 60 118 84
231 29 135 23 207 -22 263 -47 59 -81 69 -236 75 -75 3 -137 3 -137 0z m315
-40 c18 -11 44 -37 59 -58 33 -48 34 -113 6 -253 -25 -123 -61 -199 -113 -244
-74 -63 -102 -68 -399 -73 -233 -3 -267 -5 -273 -20 -3 -8 -15 -56 -26 -106
-22 -100 -58 -188 -92 -224 -37 -40 -116 -74 -173 -76 -29 0 -54 1 -57 4 -6 6
9 81 57 285 20 83 51 218 71 300 19 83 51 216 70 296 19 80 35 156 35 167 l0
22 401 0 c384 0 403 -1 434 -20z"/>
<path d="M4996 5592 c-6 -10 -36 -151 -36 -169 0 -10 48 -13 208 -13 151 0
213 3 225 13 19 14 47 88 47 126 0 49 -9 51 -231 51 -114 0 -210 -4 -213 -8z
m425 -30 c9 -23 -11 -102 -31 -127 -10 -12 -50 -15 -216 -15 -112 0 -204 1
-204 3 0 21 34 153 40 157 4 3 97 5 206 5 194 0 197 -1 205 -23z"/>
<path d="M2723 6862 c-65 -77 -153 -217 -225 -360 -38 -74 -68 -139 -68 -145
1 -7 20 29 44 78 75 159 187 341 267 438 17 20 29 37 27 37 -3 0 -23 -22 -45
-48z"/>
<path d="M2975 6856 c-15 -25 -29 -65 -31 -89 l-3 -42 9 44 c5 24 21 62 36 84
14 21 23 41 21 44 -3 2 -17 -16 -32 -41z"/>
<path d="M3085 6839 c-47 -42 -62 -73 -80 -166 -23 -121 -55 -175 -167 -284
l-98 -97 0 -121 c0 -139 -6 -161 -72 -241 -74 -91 -91 -140 -68 -195 5 -13 7
-2 3 30 -5 54 -10 45 102 201 l40 56 5 139 5 138 91 85 c108 101 145 163 170
289 19 97 42 139 93 174 19 13 29 23 23 23 -6 0 -27 -14 -47 -31z"/>
<path d="M7150 6846 c0 -2 8 -10 18 -17 15 -13 16 -12 3 4 -13 16 -21 21 -21
13z"/>
<path d="M7206 6788 c10 -14 21 -24 23 -22 3 3 -6 15 -18 27 l-24 22 19 -27z"/>
<path d="M7231 6734 c0 -11 3 -14 6 -6 3 7 2 16 -1 19 -3 4 -6 -2 -5 -13z"/>
<path d="M7303 6675 c0 -33 2 -45 4 -27 2 18 2 45 0 60 -2 15 -4 0 -4 -33z"/>
<path d="M2928 6652 c-8 -83 -33 -134 -79 -157 -16 -9 -29 -18 -29 -21 0 -15
67 36 87 65 22 32 38 116 31 162 -2 13 -7 -9 -10 -49z"/>
<path d="M7884 6644 c-46 -22 -58 -57 -38 -100 31 -65 83 -82 128 -41 42 36
37 125 -7 148 -22 11 -22 11 1 -10 30 -29 31 -102 2 -131 -28 -28 -57 -25 -91
10 -24 23 -30 37 -27 62 2 28 10 37 48 56 24 12 38 22 30 22 -8 0 -29 -7 -46
-16z"/>
<path d="M2369 6623 c16 -31 13 -75 -5 -101 -12 -17 -25 -22 -59 -22 -34 0
-47 5 -59 22 -9 12 -16 18 -16 12 0 -45 101 -60 138 -21 26 28 29 84 6 113
-15 18 -15 18 -5 -3z"/>
<path d="M2224 6606 c-3 -8 -4 -25 -2 -38 3 -17 5 -13 9 15 5 38 2 47 -7 23z"/>
<path d="M7300 6591 c0 -6 4 -13 10 -16 6 -3 7 1 4 9 -7 18 -14 21 -14 7z"/>
<path d="M7634 6518 c8 -18 35 -80 61 -137 60 -135 136 -366 169 -511 88 -398
86 -854 -5 -1214 -11 -43 -18 -83 -16 -89 4 -14 41 144 62 263 66 389 37 838
-81 1226 -52 172 -181 494 -199 494 -3 0 1 -15 9 -32z"/>
<path d="M7427 6459 c7 -7 15 -10 18 -7 3 3 -2 9 -12 12 -14 6 -15 5 -6 -5z"/>
<path d="M3565 6420 c-202 -53 -364 -170 -443 -318 -41 -76 -51 -119 -252
-1017 -92 -413 -126 -561 -151 -660 -11 -46 -21 -98 -22 -117 -1 -18 -6 -39
-11 -46 -9 -15 0 -60 16 -80 8 -9 14 -9 24 -1 11 9 14 7 14 -7 0 -16 2 -17 10
-4 6 10 10 11 10 3 0 -7 8 -13 18 -13 14 1 13 4 -7 20 -13 11 -22 20 -20 20 2
0 204 2 449 3 l445 2 70 26 c108 41 193 95 276 178 105 105 152 204 208 436
107 450 133 566 175 775 25 124 74 352 110 508 37 156 66 290 66 298 0 12 -65
14 -457 13 -414 0 -465 -2 -528 -19z m473 -596 c94 -4 172 -9 172 -12 0 -3 -9
-37 -21 -75 -15 -49 -31 -81 -54 -104 -38 -38 -37 -37 -326 -33 -85 1 -190 -1
-231 -5 l-76 -7 -16 -70 c-9 -39 -16 -74 -16 -79 0 -5 115 -9 256 -9 l257 0
-7 -67 c-5 -50 -14 -76 -33 -101 -43 -57 -75 -65 -293 -69 -107 -2 -205 -6
-217 -8 -18 -4 -25 -22 -53 -136 -17 -72 -37 -143 -45 -158 -20 -39 -74 -90
-119 -113 -46 -23 -143 -31 -139 -11 105 532 169 838 185 880 34 91 92 142
203 180 41 14 146 13 573 -3z m-1341 -1596 c-3 -8 -6 -5 -6 6 -1 11 2 17 5 13
3 -3 4 -12 1 -19z"/>
<path d="M7310 6431 c0 -12 29 -35 36 -28 4 3 -1 13 -9 22 -17 17 -27 19 -27
6z"/>
<path d="M6535 6411 c-171 -49 -311 -175 -382 -346 -12 -27 -51 -180 -88 -340
-36 -159 -75 -326 -85 -370 -11 -44 -62 -271 -114 -505 -81 -363 -113 -506
-141 -627 l-5 -23 448 0 c422 0 452 1 522 21 223 62 409 221 473 407 15 42 38
124 51 182 26 116 64 280 157 680 34 146 74 324 90 395 15 72 35 147 43 167 9
21 16 47 16 58 0 11 4 20 9 20 6 0 8 10 6 21 -3 12 -1 29 4 37 5 9 3 25 -4 39
-7 13 -12 39 -10 56 3 36 -19 67 -29 41 -3 -9 -11 -12 -18 -8 -8 5 -9 2 -4
-12 4 -10 -19 7 -50 39 -56 56 -73 64 -82 37 -3 -9 1 -11 12 -7 12 5 20 -1 28
-18 6 -13 17 -26 25 -29 9 -4 11 -2 7 6 -5 7 -3 8 5 3 9 -5 10 -10 2 -18 -17
-17 -13 -24 12 -23 19 1 22 -4 20 -37 -1 -36 0 -37 13 -20 8 10 14 14 13 8 -1
-5 0 -12 1 -15 5 -14 11 -69 11 -105 -1 -83 -2 -95 -11 -95 -6 0 -9 -3 -8 -7
3 -17 -15 -104 -23 -109 -5 -3 -7 -9 -4 -13 2 -5 -25 -134 -61 -287 -36 -154
-68 -294 -71 -311 -3 -18 -9 -30 -14 -27 -5 3 -6 -2 -3 -10 8 -21 -38 -216
-50 -209 -5 3 -6 1 -2 -5 3 -6 4 -29 0 -51 -5 -30 -10 -38 -23 -34 -11 3 -12
2 -4 -4 8 -6 10 -22 6 -47 -3 -21 -9 -33 -12 -28 -3 6 -7 -11 -7 -36 -2 -45
-17 -107 -51 -216 -11 -36 -18 -45 -25 -35 -8 11 -8 10 -4 -4 9 -27 -25 -84
-94 -160 -58 -63 -114 -104 -133 -99 -5 1 -6 -2 -2 -8 6 -9 -8 -14 -28 -11 -5
1 -6 -3 -3 -8 6 -9 -54 -37 -151 -70 -72 -24 -93 -26 -93 -8 0 9 -3 8 -9 -2
-6 -9 -24 -12 -65 -8 -31 2 -59 0 -62 -4 -3 -5 -9 -7 -14 -4 -5 3 -135 6 -290
6 -178 0 -279 3 -275 9 3 6 -4 10 -17 10 -17 0 -20 -2 -9 -9 10 -6 -12 -10
-62 -13 -70 -3 -77 -1 -77 16 0 16 2 17 18 5 15 -13 16 -12 4 3 -12 15 -10 34
8 122 13 58 26 104 30 101 4 -2 5 7 2 20 -2 15 0 25 7 25 7 0 10 4 7 8 -5 9
11 96 58 314 15 65 26 120 26 123 0 4 5 3 12 -1 6 -4 8 -3 4 4 -10 16 5 93 17
85 6 -4 7 -1 3 6 -11 17 15 142 27 134 6 -4 7 -1 2 6 -10 17 16 131 28 124 6
-3 7 -1 3 5 -10 17 45 262 57 255 6 -4 8 0 4 10 -3 9 3 56 14 104 11 49 22
103 26 120 3 18 9 30 14 28 4 -3 10 -1 14 5 3 5 1 10 -5 10 -14 0 -5 50 27
155 31 100 72 172 85 153 8 -10 9 -9 5 3 -8 23 39 90 58 83 8 -4 16 -1 16 5 1
6 2 16 3 22 1 10 46 48 58 49 3 0 8 -6 11 -12 2 -7 3 -5 1 5 -2 14 2 18 16 14
12 -3 17 0 13 8 -5 16 63 48 148 70 46 12 124 15 394 14 184 -1 339 1 342 5 3
3 -153 6 -348 5 -304 0 -362 -3 -414 -18z"/>
<path d="M7480 6423 c0 -6 8 -19 18 -29 9 -10 18 -21 18 -26 1 -4 2 -14 3 -20
1 -9 4 -8 11 2 6 10 10 11 10 3 0 -7 3 -13 8 -13 4 0 8 20 8 45 1 41 0 45 -23
45 -14 0 -21 -4 -18 -10 4 -6 10 -8 14 -6 4 3 8 -1 8 -8 0 -11 -5 -12 -21 -3
-12 7 -24 17 -28 22 -5 6 -8 6 -8 -2z"/>
<path d="M2506 6309 c-21 -44 -36 -83 -33 -85 2 -2 20 33 40 78 21 45 35 83
33 85 -1 2 -20 -33 -40 -78z"/>
<path d="M2407 6288 c-9 -29 -15 -54 -13 -56 2 -2 12 20 21 48 9 28 15 53 13
55 -2 3 -12 -19 -21 -47z"/>
<path d="M2681 6303 c-6 -21 -11 -45 -10 -53 0 -8 7 7 14 35 8 27 12 51 10 53
-2 2 -8 -13 -14 -35z"/>
<path d="M7365 6331 c-3 -5 -2 -12 3 -15 5 -3 9 1 9 9 0 17 -3 19 -12 6z"/>
<path d="M7567 6292 c3 -23 0 -69 -7 -102 -16 -77 -2 -130 52 -196 83 -101
106 -198 69 -292 -31 -79 -25 -178 14 -227 13 -16 13 -14 -1 15 -28 57 -30
148 -5 205 41 92 22 187 -55 283 -66 83 -82 137 -63 215 14 56 14 100 0 126
-7 11 -8 2 -4 -27z"/>
<path d="M2380 6217 c0 -3 -20 -75 -44 -159 -65 -225 -114 -501 -103 -573 3
-25 4 -24 6 11 4 131 48 355 111 573 22 79 39 146 36 149 -4 3 -6 3 -6 -1z"/>
<path d="M2672 6185 c0 -16 2 -22 5 -12 2 9 2 23 0 30 -3 6 -5 -1 -5 -18z"/>
<path d="M2412 6027 c-49 -175 -67 -253 -82 -357 -57 -398 -38 -706 70 -1140
71 -286 135 -447 290 -730 39 -72 83 -143 96 -158 21 -23 20 -20 -4 18 -44 67
-169 301 -217 404 -143 307 -255 828 -255 1184 0 264 35 509 111 775 22 77 39
143 37 148 -2 5 -22 -60 -46 -144z"/>
<path d="M2662 6143 c8 -30 -19 -90 -62 -139 -28 -32 -50 -62 -49 -68 0 -6 6
-3 12 8 7 10 27 35 45 55 18 20 39 47 46 61 18 35 28 90 16 90 -6 0 -9 -3 -8
-7z"/>
<path d="M8461 6149 c-1 -4 6 -26 15 -50 16 -45 20 -152 8 -224 -3 -22 -4 -38
-1 -35 15 14 27 145 18 195 -9 46 -38 130 -40 114z"/>
<path d="M8113 6088 c-11 -13 -23 -30 -27 -38 -4 -8 1 -5 11 7 10 12 27 29 38
37 11 9 15 16 9 16 -6 0 -20 -10 -31 -22z"/>
<path d="M8227 6099 c7 -7 15 -10 18 -7 3 3 -2 9 -12 12 -14 6 -15 5 -6 -5z"/>
<path d="M2156 6068 c37 -61 -11 -138 -87 -138 -29 0 -42 6 -58 26 -12 15 -21
22 -21 15 0 -25 40 -51 81 -51 33 0 47 6 75 34 40 40 45 81 13 117 l-20 24 17
-27z"/>
<path d="M7452 6076 c4 -5 3 -17 -2 -27 -7 -12 -6 -20 2 -25 7 -4 10 -4 6 1
-4 4 -1 13 8 20 14 10 14 12 -3 25 -10 8 -15 11 -11 6z"/>
<path d="M1972 6025 c0 -16 2 -22 5 -12 2 9 2 23 0 30 -3 6 -5 -1 -5 -18z"/>
<path d="M8272 6017 c-2 -45 -36 -82 -85 -93 -18 -4 -27 -9 -20 -11 20 -7 81
24 98 50 10 16 15 39 12 59 -4 33 -4 33 -5 -5z"/>
<path d="M8067 6024 c-17 -18 43 -105 72 -103 11 0 8 3 -6 9 -26 11 -53 50
-56 79 -1 23 -1 23 -10 15z"/>
<path d="M7439 5995 c-1 -11 0 -28 1 -38 1 -10 -4 -25 -11 -33 -10 -12 -9 -13
4 -9 18 7 29 63 16 85 -7 12 -9 11 -10 -5z"/>
<path d="M7520 5985 c0 -6 18 -34 40 -64 22 -29 40 -50 40 -45 0 4 -12 23 -27
42 -16 20 -33 45 -40 56 -7 12 -12 16 -13 11z"/>
<path d="M2541 5904 c0 -11 3 -14 6 -6 3 7 2 16 -1 19 -3 4 -6 -2 -5 -13z"/>
<path d="M2531 5832 c0 -30 8 -90 20 -134 11 -44 18 -87 15 -94 -3 -8 -1 -14
4 -14 14 0 12 23 -6 94 -9 33 -20 93 -24 131 -7 69 -7 70 -9 17z"/>
<path d="M7601 5858 c-1 -4 4 -19 9 -34 8 -20 6 -40 -11 -90 -18 -52 -21 -79
-17 -142 5 -66 12 -90 49 -162 39 -75 44 -93 44 -150 0 -53 -6 -78 -33 -134
-18 -38 -31 -71 -29 -73 2 -2 19 29 38 69 28 60 34 85 34 140 0 58 -5 76 -43
148 -36 70 -43 93 -48 163 -5 69 -3 92 15 144 20 56 21 64 7 95 -8 18 -15 30
-15 26z"/>
<path d="M6489 5842 l-227 -2 -7 -28 c-11 -38 -15 -183 -5 -177 4 2 16 -5 26
-17 32 -35 84 -50 192 -56 56 -3 102 -8 102 -13 0 -4 -14 -68 -30 -141 -17
-73 -37 -164 -45 -203 -8 -38 -26 -119 -40 -180 -14 -60 -25 -113 -25 -118 0
-4 -4 -6 -9 -3 -4 3 -6 -6 -3 -19 2 -15 0 -25 -7 -25 -7 0 -10 -4 -7 -9 3 -4
1 -23 -4 -42 -10 -34 -3 -100 9 -82 3 6 35 13 71 16 38 4 59 3 51 -2 -11 -7
-11 -9 0 -13 8 -3 24 5 35 18 12 12 30 21 40 21 10 -1 19 4 19 11 0 8 12 24
26 35 33 27 66 95 75 153 4 27 10 41 17 37 6 -3 7 -1 3 6 -4 6 7 76 24 154 83
376 81 369 101 374 19 5 19 6 2 19 -16 12 -14 13 19 14 20 0 40 -4 43 -10 3
-5 11 -10 16 -10 6 0 8 4 4 9 -3 6 36 12 92 15 118 6 133 8 127 18 -3 4 1 8 8
8 8 0 14 8 15 18 1 9 8 35 17 57 19 50 20 94 1 119 -8 10 -12 23 -8 29 3 6 1
7 -4 4 -6 -4 -24 -2 -39 3 -33 11 -341 16 -675 12z m671 -25 c61 -21 72 -83
29 -169 -32 -63 -47 -68 -201 -68 l-137 0 -11 -37 c-5 -21 -23 -101 -40 -178
-58 -277 -101 -451 -123 -495 -32 -64 -91 -98 -193 -109 -43 -5 -80 -8 -82 -7
-1 2 10 48 24 102 32 118 62 251 109 474 20 91 39 182 44 202 5 20 6 40 3 43
-3 3 -52 5 -109 5 -188 0 -234 48 -207 213 l7 37 426 -1 c303 0 436 -4 461
-12z"/>
<path d="M1771 5777 c-1 -5 11 -50 26 -100 22 -74 27 -112 27 -197 -1 -122
-11 -173 -66 -313 -58 -148 -85 -242 -92 -322 l-5 -70 13 75 c20 108 38 168
96 320 82 215 89 350 27 540 -14 41 -25 71 -26 67z"/>
<path d="M8524 5688 c-26 -83 -29 -107 -29 -228 0 -141 14 -207 65 -300 27
-50 24 -32 -5 33 -67 145 -72 338 -14 515 12 35 19 65 17 68 -3 2 -18 -38 -34
-88z"/>
<path d="M7365 5750 c3 -5 8 -10 11 -10 2 0 4 5 4 10 0 6 -5 10 -11 10 -5 0
-7 -4 -4 -10z"/>
<path d="M8446 5715 c-9 -26 -7 -32 5 -12 6 10 9 21 6 23 -2 3 -7 -2 -11 -11z"/>
<path d="M2654 5612 c-1 -46 -10 -76 -48 -156 -25 -55 -45 -101 -43 -103 2 -2
24 41 49 94 49 104 64 165 51 200 -6 16 -8 7 -9 -35z"/>
<path d="M8406 5605 c-3 -9 -5 -58 -4 -108 l2 -92 5 105 c7 114 7 119 -3 95z"/>
<path d="M2561 5565 c-1 -11 -4 -31 -6 -45 l-6 -25 11 25 c6 13 9 33 7 45 -4
19 -4 19 -6 0z"/>
<path d="M7088 5553 c7 -3 16 -2 19 1 4 3 -2 6 -13 5 -11 0 -14 -3 -6 -6z"/>
<path d="M2225 5205 c4 -251 20 -406 59 -575 19 -78 14 -38 -20 175 -19 118
-28 224 -34 405 l-8 245 3 -250z"/>
<path d="M7720 5430 c6 -11 13 -20 16 -20 2 0 0 9 -6 20 -6 11 -13 20 -16 20
-2 0 0 -9 6 -20z"/>
<path d="M2481 5392 c-34 -63 -17 -199 35 -289 15 -25 33 -61 40 -81 7 -21 13
-29 14 -19 0 10 -21 61 -47 113 -44 89 -46 98 -46 173 1 43 6 88 12 100 7 12
9 21 7 21 -3 0 -10 -8 -15 -18z"/>
<path d="M7744 5292 c0 -99 -3 -112 -32 -176 -18 -38 -31 -71 -29 -73 2 -2 19
29 37 69 28 61 34 88 38 164 2 51 0 99 -4 107 -6 9 -9 -26 -10 -91z"/>
<path d="M8411 5375 c-1 -46 25 -157 52 -222 14 -32 38 -87 53 -123 17 -39 31
-95 35 -140 l7 -75 -2 81 c-2 71 -7 91 -48 180 -55 119 -66 153 -83 252 -7 43
-13 64 -14 47z"/>
<path d="M8198 5343 c6 -2 18 -2 25 0 6 3 1 5 -13 5 -14 0 -19 -2 -12 -5z"/>
<path d="M2545 5308 c-4 -18 -2 -43 2 -56 7 -17 9 -9 9 33 0 30 -1 55 -3 55
-1 0 -5 -15 -8 -32z"/>
<path d="M7994 5240 c0 -58 1 -81 3 -52 2 28 2 76 0 105 -2 28 -3 5 -3 -53z"/>
<path d="M8147 5322 c-22 -24 -22 -95 -1 -116 22 -22 31 -20 11 2 -26 28 -22
97 5 116 12 9 18 16 12 16 -6 0 -18 -8 -27 -18z"/>
<path d="M8270 5335 c0 -5 5 -17 10 -25 5 -8 10 -10 10 -5 0 6 -5 17 -10 25
-5 8 -10 11 -10 5z"/>
<path d="M1941 5275 c-1 -41 20 -85 41 -85 7 0 3 6 -7 14 -12 8 -21 32 -26 62
l-6 49 -2 -40z"/>
<path d="M1691 5249 c-12 -29 -20 -54 -17 -56 2 -2 13 19 25 48 12 28 20 53
18 55 -2 3 -14 -19 -26 -47z"/>
<path d="M8290 5266 c0 -36 -32 -68 -76 -76 l-39 -8 33 -1 c42 -1 92 44 92 83
0 14 -2 26 -5 26 -3 0 -5 -11 -5 -24z"/>
<path d="M5980 5265 c0 -5 5 -17 10 -25 5 -8 10 -10 10 -5 0 6 -5 17 -10 25
-5 8 -10 11 -10 5z"/>
<path d="M2083 5224 c-3 -9 -15 -20 -27 -25 -17 -7 -18 -9 -2 -6 17 2 57 47
42 47 -4 0 -9 -7 -13 -16z"/>
<path d="M2560 5218 c0 -4 14 -31 31 -60 46 -77 52 -96 59 -173 l7 -70 1 65
c1 50 -4 76 -22 115 -27 55 -75 134 -76 123z"/>
<path d="M5983 5195 c0 -8 4 -12 9 -9 5 3 6 10 3 15 -9 13 -12 11 -12 -6z"/>
<path d="M1656 5165 c-9 -26 -7 -32 5 -12 6 10 9 21 6 23 -2 3 -7 -2 -11 -11z"/>
<path d="M6780 5146 c0 -8 4 -17 9 -20 5 -4 7 3 4 14 -6 23 -13 26 -13 6z"/>
<path d="M1631 5098 c-43 -134 -51 -245 -25 -378 15 -79 52 -195 60 -188 2 2
-5 28 -16 56 -54 141 -62 331 -20 465 12 38 19 71 17 74 -3 2 -10 -11 -16 -29z"/>
<path d="M7992 5038 c-4 -188 -51 -446 -123 -681 -83 -271 -303 -690 -458
-871 -20 -24 -83 -101 -141 -172 -189 -232 -344 -370 -615 -546 -72 -46 -166
-105 -210 -130 -116 -66 -382 -194 -440 -211 -27 -8 -142 -30 -254 -48 -112
-18 -199 -35 -193 -37 11 -3 96 10 354 54 104 18 164 42 369 145 367 185 714
437 900 652 137 158 312 380 370 470 72 110 212 384 268 522 109 272 186 642
178 856 l-3 94 -2 -97z"/>
<path d="M8595 5085 c38 -118 49 -304 26 -420 -29 -140 -73 -217 -206 -357
-96 -101 -149 -187 -179 -287 -12 -41 -16 -100 -16 -240 0 -125 -5 -203 -14
-237 -22 -84 -85 -191 -160 -272 -39 -42 -57 -66 -41 -52 92 78 184 215 210
315 12 45 16 106 16 250 -1 176 1 195 23 258 36 101 80 168 182 276 101 106
135 156 163 234 49 135 60 274 32 414 -11 57 -25 111 -31 120 -10 16 -11 16
-5 -2z"/>
<path d="M1011 4984 c0 -54 4 -121 9 -149 4 -29 5 10 2 95 -6 167 -12 200 -11
54z"/>
<path d="M6775 5060 c3 -5 8 -10 11 -10 2 0 4 5 4 10 0 6 -5 10 -11 10 -5 0
-7 -4 -4 -10z"/>
<path d="M7586 5014 c-4 -14 -5 -28 -3 -31 3 -2 8 8 11 23 4 14 5 28 3 31 -3
2 -8 -8 -11 -23z"/>
<path d="M7666 5005 c-8 -30 18 -145 29 -133 2 2 -2 26 -11 53 -8 28 -12 62
-8 77 7 35 -2 37 -10 3z"/>
<path d="M2561 4944 c0 -11 3 -14 6 -6 3 7 2 16 -1 19 -3 4 -6 -2 -5 -13z"/>
<path d="M7580 4939 c0 -4 7 -24 16 -45 10 -22 25 -68 35 -104 9 -36 18 -56
18 -46 1 25 -35 144 -54 176 -8 14 -14 22 -15 19z"/>
<path d="M2607 4826 c-31 -66 -37 -92 -34 -127 l4 -44 1 48 c1 32 14 70 38
118 19 39 34 75 32 79 -2 5 -20 -28 -41 -74z"/>
<path d="M2526 4854 c-4 -14 -5 -28 -3 -31 3 -2 8 8 11 23 4 14 5 28 3 31 -3
2 -8 -8 -11 -23z"/>
<path d="M7701 4855 c1 -19 18 -51 18 -35 0 8 -4 22 -9 30 -5 8 -9 11 -9 5z"/>
<path d="M2512 4790 c0 -14 2 -19 5 -12 2 6 2 18 0 25 -3 6 -5 1 -5 -13z"/>
<path d="M8552 4775 c-5 -117 -72 -270 -162 -368 -34 -37 -56 -64 -48 -61 7 3
37 33 66 67 89 102 161 278 150 367 l-5 35 -1 -40z"/>
<path d="M7121 4784 c0 -11 3 -14 6 -6 3 7 2 16 -1 19 -3 4 -6 -2 -5 -13z"/>
<path d="M7718 4763 c6 -65 10 -70 11 -15 0 28 -3 52 -7 52 -4 0 -6 -17 -4
-37z"/>
<path d="M6800 4779 c0 -5 5 -7 10 -4 6 3 10 8 10 11 0 2 -4 4 -10 4 -5 0 -10
-5 -10 -11z"/>
<path d="M1032 4750 c-1 -38 25 -188 26 -155 1 11 -5 58 -12 105 -8 47 -14 69
-14 50z"/>
<path d="M1671 4760 c-2 -39 54 -188 66 -177 3 4 1 12 -5 19 -5 7 -21 49 -35
93 -15 44 -26 73 -26 65z"/>
<path d="M1989 4753 c-13 -17 -13 -17 6 -3 11 8 22 16 24 17 2 2 0 3 -6 3 -6
0 -17 -8 -24 -17z"/>
<path d="M7135 4760 c-3 -5 -1 -10 4 -10 6 0 11 5 11 10 0 6 -2 10 -4 10 -3 0
-8 -4 -11 -10z"/>
<path d="M2102 4735 c4 -6 12 -22 17 -36 6 -15 10 -18 10 -8 1 9 -7 25 -16 36
-10 10 -15 14 -11 8z"/>
<path d="M6191 4734 c0 -11 3 -14 6 -6 3 7 2 16 -1 19 -3 4 -6 -2 -5 -13z"/>
<path d="M6584 4734 c-18 -14 -18 -15 3 -5 16 8 23 8 26 -2 4 -9 6 -9 6 0 2
20 -15 23 -35 7z"/>
<path d="M7125 4730 c-3 -5 -1 -10 4 -10 6 0 11 5 11 10 0 6 -2 10 -4 10 -3 0
-8 -4 -11 -10z"/>
<path d="M6730 4726 c0 -2 7 -7 16 -10 8 -3 12 -2 9 4 -6 10 -25 14 -25 6z"/>
<path d="M8124 4705 c-22 -33 -13 -91 19 -123 27 -27 82 -33 100 -11 7 8 8 11
3 7 -6 -5 -27 -8 -48 -8 -32 0 -41 5 -58 33 -24 39 -25 75 -4 105 8 12 13 22
10 22 -3 0 -13 -11 -22 -25z"/>
<path d="M7627 4701 c-4 -17 -3 -21 5 -13 5 5 8 16 6 23 -3 8 -7 3 -11 -10z"/>
<path d="M2502 4690 c0 -14 2 -19 5 -12 2 6 2 18 0 25 -3 6 -5 1 -5 -13z"/>
<path d="M7712 4655 c0 -16 2 -22 5 -12 2 9 2 23 0 30 -3 6 -5 -1 -5 -18z"/>
<path d="M2120 4641 c0 -27 -48 -71 -78 -71 -14 0 -37 10 -50 23 l-25 22 18
-27 c24 -39 72 -38 114 1 26 24 43 71 26 71 -3 0 -5 -8 -5 -19z"/>
<path d="M2516 4640 c6 -24 55 -94 109 -155 41 -47 16 -6 -31 50 -23 28 -51
68 -63 90 -13 25 -19 30 -15 15z"/>
<path d="M7120 4629 c0 -5 5 -7 10 -4 6 3 10 8 10 11 0 2 -4 4 -10 4 -5 0 -10
-5 -10 -11z"/>
<path d="M7558 4542 c-40 -62 -68 -132 -67 -166 0 -11 7 2 14 30 14 52 40 105
77 157 11 16 18 30 16 32 -2 2 -20 -22 -40 -53z"/>
<path d="M7646 4543 c-25 -32 -46 -62 -46 -67 0 -5 13 9 30 30 16 21 39 51 50
67 12 15 19 27 17 27 -3 0 -26 -26 -51 -57z"/>
<path d="M2682 4541 c18 -27 35 -48 36 -46 5 4 -57 95 -64 95 -2 0 10 -22 28
-49z"/>
<path d="M1755 4543 c8 -17 58 -82 110 -145 53 -62 108 -132 123 -154 49 -75
52 -79 33 -39 -11 23 -50 78 -88 124 -78 95 -150 185 -176 221 -17 25 -17 25
-2 -7z"/>
<path d="M1062 4535 c0 -16 2 -22 5 -12 2 9 2 23 0 30 -3 6 -5 -1 -5 -18z"/>
<path d="M2301 4544 c0 -11 3 -14 6 -6 3 7 2 16 -1 19 -3 4 -6 -2 -5 -13z"/>
<path d="M6245 4540 c3 -5 8 -10 11 -10 2 0 4 5 4 10 0 6 -5 10 -11 10 -5 0
-7 -4 -4 -10z"/>
<path d="M1670 4511 c0 -5 7 -15 17 -22 15 -13 15 -12 4 9 -12 23 -21 28 -21
13z"/>
<path d="M2310 4511 c0 -36 62 -209 142 -395 117 -273 216 -470 265 -526 22
-25 68 -83 103 -130 131 -173 309 -366 443 -482 83 -72 361 -256 532 -353 218
-124 385 -194 586 -245 45 -12 83 -19 85 -17 2 2 -35 14 -83 27 -268 70 -495
177 -813 383 -206 134 -287 195 -394 297 -94 89 -293 316 -361 410 -21 30 -59
78 -83 105 -74 83 -331 639 -388 838 -26 92 -34 112 -34 88z"/>
<path d="M7821 4504 c0 -11 3 -14 6 -6 3 7 2 16 -1 19 -3 4 -6 -2 -5 -13z"/>
<path d="M1072 4480 c0 -14 2 -19 5 -12 2 6 2 18 0 25 -3 6 -5 1 -5 -13z"/>
<path d="M9047 4334 c-20 -87 -35 -159 -33 -161 6 -6 78 296 74 308 -2 5 -20
-61 -41 -147z"/>
<path d="M7801 4439 c-7 -22 -11 -43 -8 -45 2 -2 9 14 16 37 7 22 11 43 8 45
-2 2 -9 -14 -16 -37z"/>
<path d="M1705 4460 c9 -16 113 -144 154 -189 39 -43 -26 45 -87 119 -64 76
-79 92 -67 70z"/>
<path d="M6547 4449 c7 -7 15 -10 18 -7 3 3 -2 9 -12 12 -14 6 -15 5 -6 -5z"/>
<path d="M7585 4443 c-3 -10 -11 -69 -16 -131 -5 -62 -14 -123 -20 -135 -23
-43 -79 -103 -131 -141 -80 -57 -100 -93 -109 -200 -11 -114 -23 -149 -68
-199 -20 -22 -27 -34 -15 -27 53 33 94 136 94 238 0 70 22 115 78 160 157 128
170 150 182 304 5 62 12 121 15 131 4 9 5 17 2 17 -3 0 -8 -8 -12 -17z"/>
<path d="M1081 4438 c-1 -22 40 -200 45 -195 4 3 -32 179 -41 202 -2 6 -4 2
-4 -7z"/>
<path d="M7169 4427 c-68 -45 -72 -148 -8 -201 24 -20 41 -26 81 -26 44 0 54
4 84 34 29 29 34 40 34 83 -1 57 -16 87 -56 114 -39 26 -93 24 -135 -4z m114
-1 c75 -31 90 -132 28 -188 -46 -41 -102 -39 -147 6 -29 29 -34 41 -34 79 0
89 72 137 153 103z"/>
<path d="M7195 4370 c3 -5 24 -10 46 -10 32 0 39 -4 39 -19 0 -34 -55 -43 -63
-10 -3 13 -10 18 -17 14 -8 -5 -8 -11 -2 -17 5 -5 8 -25 5 -44 -3 -20 0 -34 6
-34 6 0 11 11 11 25 0 36 31 32 54 -6 10 -17 20 -28 23 -25 3 3 -2 17 -11 31
-15 23 -15 27 -2 41 12 12 13 20 4 39 -9 21 -18 25 -55 25 -27 0 -42 -4 -38
-10z"/>
<path d="M6165 4390 c3 -5 8 -10 11 -10 2 0 4 5 4 10 0 6 -5 10 -11 10 -5 0
-7 -4 -4 -10z"/>
<path d="M7750 4283 c-18 -54 -48 -134 -66 -177 -19 -44 -32 -82 -29 -84 2 -3
9 6 14 19 5 13 21 53 36 89 31 73 86 242 81 248 -2 2 -19 -41 -36 -95z"/>
<path d="M6360 4309 c0 -5 5 -7 10 -4 6 3 10 8 10 11 0 2 -4 4 -10 4 -5 0 -10
-5 -10 -11z"/>
<path d="M8263 4269 c-97 -116 -135 -267 -131 -527 l1 -127 8 170 c11 272 40
375 134 483 26 28 43 52 38 52 -4 0 -27 -23 -50 -51z"/>
<path d="M5808 4233 c6 -2 18 -2 25 0 6 3 1 5 -13 5 -14 0 -19 -2 -12 -5z"/>
<path d="M6088 4233 c7 -3 16 -2 19 1 4 3 -2 6 -13 5 -11 0 -14 -3 -6 -6z"/>
<path d="M6203 4233 c9 -2 23 -2 30 0 6 3 -1 5 -18 5 -16 0 -22 -2 -12 -5z"/>
<path d="M6298 4233 c7 -3 16 -2 19 1 4 3 -2 6 -13 5 -11 0 -14 -3 -6 -6z"/>
<path d="M6568 4233 c7 -3 16 -2 19 1 4 3 -2 6 -13 5 -11 0 -14 -3 -6 -6z"/>
<path d="M1135 4205 c23 -121 198 -645 212 -631 2 2 -9 37 -25 77 -45 115 -77
210 -132 394 -53 179 -64 209 -55 160z"/>
<path d="M1929 4155 c43 -62 53 -118 60 -365 7 -210 10 -241 31 -294 45 -116
138 -247 213 -297 22 -15 16 -6 -19 27 -69 67 -117 129 -149 193 -55 109 -57
123 -65 371 -8 254 -22 327 -70 374 l-23 21 22 -30z"/>
<path d="M8957 4008 c-111 -349 -255 -631 -528 -1038 -268 -401 -463 -616
-795 -879 -474 -377 -1023 -646 -1617 -792 -26 -6 -46 -13 -44 -16 7 -6 195
43 322 84 640 205 1207 546 1666 1003 152 150 236 251 374 444 244 345 428
664 538 931 64 158 148 415 135 415 -2 0 -25 -69 -51 -152z"/>
<path d="M2322 4120 c25 -26 29 -36 24 -62 -8 -42 -21 -55 -60 -62 -46 -9 -62
-1 -86 47 -19 36 -21 38 -16 12 10 -47 52 -78 95 -71 42 7 68 31 77 72 4 24 0
37 -21 62 -15 18 -31 32 -35 32 -5 0 5 -14 22 -30z"/>
<path d="M7375 4101 c-33 -26 -67 -56 -75 -67 -8 -10 -1 -7 15 7 17 14 54 45
83 68 30 22 50 41 45 41 -4 -1 -35 -22 -68 -49z"/>
<path d="M2051 4130 c-1 -3 8 -48 19 -100 17 -80 19 -118 14 -245 -6 -145 -6
-153 20 -230 36 -106 63 -150 133 -218 72 -69 146 -123 239 -171 39 -20 100
-60 135 -88 35 -28 55 -41 44 -29 -30 35 -105 87 -196 137 -157 87 -260 181
-309 283 -53 109 -63 168 -56 321 5 104 3 154 -9 218 -14 71 -33 139 -34 122z"/>
<path d="M7906 4121 c-4 -5 3 -7 14 -4 23 6 26 13 6 13 -8 0 -17 -4 -20 -9z"/>
<path d="M2195 4109 c-4 -6 -5 -12 -2 -15 2 -3 7 2 10 11 7 17 1 20 -8 4z"/>
<path d="M2720 4113 c0 -12 39 -46 120 -105 59 -44 80 -89 90 -196 l9 -87 -3
87 c-5 115 -28 165 -99 210 -29 18 -67 48 -84 67 -18 19 -33 30 -33 24z"/>
<path d="M8028 4110 c19 -22 15 -97 -5 -109 -10 -6 -13 -11 -7 -11 35 -1 49
96 17 121 -15 11 -16 11 -5 -1z"/>
<path d="M7881 4074 c-1 -11 6 -29 15 -40 8 -10 12 -13 9 -6 -4 8 -11 26 -15
40 -7 22 -8 23 -9 6z"/>
<path d="M2925 4036 c10 -14 19 -26 22 -26 7 0 -17 39 -28 46 -6 3 -3 -5 6
-20z"/>
<path d="M7259 3979 c-13 -18 -23 -50 -25 -77 l-3 -47 7 41 c4 22 18 57 30 77
26 45 21 48 -9 6z"/>
<path d="M7585 3903 c-60 -105 -137 -226 -202 -315 -19 -27 -31 -48 -26 -48
14 1 221 318 273 420 42 83 14 46 -45 -57z"/>
<path d="M7910 4001 c0 -15 38 -33 58 -28 13 4 11 5 -5 6 -12 0 -29 8 -37 17
-9 8 -16 11 -16 5z"/>
<path d="M2970 3958 c12 -26 24 -73 29 -105 7 -44 9 -50 10 -22 1 42 -22 127
-44 154 -10 13 -8 4 5 -27z"/>
<path d="M7232 3830 c0 -14 2 -19 5 -12 2 6 2 18 0 25 -3 6 -5 1 -5 -13z"/>
<path d="M7221 3784 c0 -11 3 -14 6 -6 3 7 2 16 -1 19 -3 4 -6 -2 -5 -13z"/>
<path d="M3010 3774 c0 -10 5 -26 10 -34 8 -11 9 -7 4 15 -8 37 -14 45 -14 19z"/>
<path d="M7192 3720 c-17 -31 -38 -47 -95 -74 -79 -38 -86 -48 -12 -16 65 28
103 56 121 92 23 44 12 43 -14 -2z"/>
<path d="M2940 3715 c0 -5 10 -28 23 -50 19 -34 37 -48 127 -92 118 -58 142
-84 161 -169 16 -72 57 -144 98 -171 19 -13 39 -23 45 -23 6 1 -6 10 -27 21
-48 25 -71 63 -103 166 -13 44 -34 93 -45 107 -11 14 -66 48 -122 75 -94 45
-105 53 -130 98 -14 26 -27 44 -27 38z"/>
<path d="M3040 3686 c0 -2 8 -10 18 -17 15 -13 16 -12 3 4 -13 16 -21 21 -21
13z"/>
<path d="M3252 3575 c38 -38 54 -73 82 -177 16 -55 59 -108 89 -108 7 0 -3 9
-21 20 -35 22 -52 54 -72 137 -14 61 -59 137 -92 154 -16 8 -12 1 14 -26z"/>
<path d="M6976 3589 c-25 -20 -82 -116 -73 -125 2 -2 12 14 22 36 10 22 36 56
57 75 41 38 37 48 -6 14z"/>
<path d="M7788 3600 c63 -15 92 -68 71 -129 -21 -59 -101 -81 -153 -40 -22 17
-26 29 -26 68 0 33 7 57 21 77 l21 29 -26 -28 c-37 -40 -37 -113 0 -151 53
-52 150 -25 174 49 23 68 -25 137 -92 134 -17 -1 -15 -3 10 -9z"/>
<path d="M8118 3571 c-16 -107 -123 -249 -249 -327 -30 -18 -49 -34 -43 -34
19 0 148 96 183 136 72 82 127 195 119 246 -2 15 -6 8 -10 -21z"/>
<path d="M2407 3580 c-35 -27 -44 -78 -22 -123 40 -85 174 -73 191 19 7 41
-10 88 -40 109 -30 22 -98 19 -129 -5z m122 0 c46 -24 51 -125 8 -155 -33 -23
-91 -19 -124 9 -23 20 -28 32 -28 71 0 37 5 51 24 66 25 21 90 26 120 9z"/>
<path d="M7112 3572 c-106 -39 -138 -80 -157 -202 -13 -86 -86 -149 -179 -155
-31 -2 -76 -13 -100 -25 -51 -24 -126 -101 -126 -127 1 -11 6 -6 14 13 15 35
87 97 131 114 17 7 54 13 83 15 76 5 143 50 171 115 12 27 21 61 21 77 0 15 9
47 19 70 21 45 75 83 146 102 38 11 81 32 60 30 -5 -1 -43 -13 -83 -27z"/>
<path d="M2880 3520 c98 -144 342 -404 470 -501 l55 -41 -55 47 c-118 102
-351 349 -425 449 -85 116 -109 141 -45 46z"/>
<path d="M1351 3555 c0 -5 37 -82 82 -170 332 -644 835 -1212 1417 -1602 300
-201 633 -367 935 -468 209 -70 635 -168 711 -164 10 0 -42 12 -116 25 -243
44 -500 113 -720 195 -278 103 -658 311 -932 509 -528 383 -984 919 -1295
1525 -45 88 -82 156 -82 150z"/>
<path d="M7269 3438 c-41 -51 -95 -117 -121 -146 -45 -49 -54 -62 -44 -62 5 0
228 266 239 285 19 35 -5 9 -74 -77z"/>
<path d="M6890 3438 c0 -35 -25 -93 -48 -116 -23 -21 -24 -23 -5 -13 13 6 29
24 37 39 16 31 31 102 22 102 -3 0 -6 -6 -6 -12z"/>
<path d="M6775 3285 c-25 -12 -26 -14 -5 -9 14 4 29 10 35 15 12 12 5 11 -30
-6z"/>
<path d="M3485 3273 c128 -36 202 -83 235 -149 31 -62 84 -125 124 -149 46
-27 157 -59 184 -52 9 2 -5 7 -33 12 -120 19 -202 71 -246 157 -27 54 -95 125
-139 148 -35 18 -149 51 -166 49 -5 -1 14 -8 41 -16z"/>
<path d="M6685 3255 c-40 -14 -40 -14 -5 -8 19 3 42 9 50 14 22 12 1 9 -45 -6z"/>
<path d="M3425 3200 c11 -5 29 -8 40 -8 16 0 15 2 -5 8 -34 11 -60 11 -35 0z"/>
<path d="M7765 3188 c-60 -31 -219 -163 -256 -211 -25 -33 -17 -27 37 25 81
79 174 152 227 179 20 11 37 22 37 24 0 7 0 7 -45 -17z"/>
<path d="M7050 3185 c-11 -13 -10 -14 4 -9 9 3 16 10 16 15 0 13 -6 11 -20 -6z"/>
<path d="M7949 3183 c-13 -16 -12 -17 4 -4 9 7 17 15 17 17 0 8 -8 3 -21 -13z"/>
<path d="M3498 3183 c7 -3 16 -2 19 1 4 3 -2 6 -13 5 -11 0 -14 -3 -6 -6z"/>
<path d="M6514 3159 c-20 -22 -23 -28 -8 -19 18 11 50 50 41 50 -2 0 -16 -14
-33 -31z"/>
<path d="M2270 3176 c0 -2 7 -7 16 -10 8 -3 12 -2 9 4 -6 10 -25 14 -25 6z"/>
<path d="M3597 3135 c23 -19 55 -59 71 -89 32 -56 93 -115 146 -140 17 -8 78
-24 135 -35 127 -26 169 -49 246 -137 65 -74 103 -95 167 -93 42 2 41 2 -12 9
-73 9 -86 17 -154 95 -76 86 -120 110 -246 135 -56 12 -119 30 -140 40 -46 24
-116 94 -140 140 -17 34 -91 110 -107 110 -4 0 12 -16 34 -35z"/>
<path d="M7869 3141 c-97 -49 -166 -100 -249 -183 -69 -70 -88 -97 -143 -207
-121 -242 -229 -383 -336 -440 -69 -37 -232 -81 -297 -81 -24 0 -44 -4 -44 -8
0 -11 115 3 194 23 99 25 201 79 255 134 67 69 161 213 233 360 51 104 74 138
137 204 81 85 148 135 249 186 34 17 62 33 62 36 0 7 0 7 -61 -24z"/>
<path d="M2320 3150 c8 -6 57 -36 109 -68 108 -66 216 -161 260 -230 17 -27
54 -102 82 -167 28 -66 68 -144 89 -175 38 -56 127 -142 165 -161 11 -6 2 5
-20 22 -109 89 -174 185 -240 354 -37 95 -104 193 -167 247 -66 56 -189 138
-248 167 -25 12 -38 17 -30 11z"/>
<path d="M2915 3138 c24 -18 27 -26 22 -60 -7 -52 -22 -68 -67 -68 -41 0 -65
20 -73 60 -4 25 -4 25 -6 -2 -3 -66 89 -95 137 -42 37 42 20 134 -25 134 -11
0 -7 -7 12 -22z"/>
<path d="M7004 3128 l-19 -23 23 19 c12 11 22 21 22 23 0 8 -8 2 -26 -19z"/>
<path d="M7412 3126 c7 -8 15 -12 17 -11 5 6 -10 25 -20 25 -5 0 -4 -6 3 -14z"/>
<path d="M7281 3114 c0 -11 3 -14 6 -6 3 7 2 16 -1 19 -3 4 -6 -2 -5 -13z"/>
<path d="M6945 3096 c-16 -8 -46 -30 -65 -51 -19 -20 -70 -64 -112 -96 -42
-32 -80 -64 -84 -71 -11 -18 154 112 208 165 28 26 56 47 63 47 8 0 17 5 20
10 8 12 7 12 -30 -4z"/>
<path d="M7422 3063 c-15 -48 -8 -55 8 -8 7 20 10 38 8 41 -3 2 -10 -13 -16
-33z"/>
<path d="M7280 3051 c0 -27 40 -51 83 -49 l42 1 -42 4 c-31 3 -48 11 -63 30
-11 14 -20 21 -20 14z"/>
<path d="M6535 3018 c-24 -79 -104 -122 -255 -137 -80 -9 -130 -23 -130 -37 0
-2 9 0 21 6 11 6 62 16 112 21 124 13 178 32 220 78 34 38 54 77 44 88 -3 2
-8 -6 -12 -19z"/>
<path d="M2680 3016 c0 -2 8 -10 18 -17 15 -13 16 -12 3 4 -13 16 -21 21 -21
13z"/>
<path d="M3445 2946 c83 -75 325 -230 476 -307 236 -118 542 -208 839 -245
109 -14 507 -21 518 -9 3 3 -87 5 -199 5 -297 0 -532 35 -790 116 -312 99
-510 203 -824 432 -53 38 -55 39 -20 8z"/>
<path d="M6330 2960 c-8 -5 -10 -10 -5 -10 6 0 17 5 25 10 8 5 11 10 5 10 -5
0 -17 -5 -25 -10z"/>
<path d="M6182 2942 c-7 -5 16 -7 50 -4 85 5 96 10 23 11 -33 0 -66 -3 -73 -7z"/>
<path d="M4063 2923 c9 -2 23 -2 30 0 6 3 -1 5 -18 5 -16 0 -22 -2 -12 -5z"/>
<path d="M4151 2891 c24 -16 67 -52 94 -81 80 -82 120 -95 205 -65 90 32 204
11 271 -50 42 -38 62 -48 118 -59 49 -9 31 4 -21 15 -26 6 -62 26 -91 51 -77
65 -190 86 -282 53 -84 -30 -120 -18 -210 75 -33 34 -72 68 -87 76 -46 24 -44
16 3 -15z"/>
<path d="M6067 2889 c-20 -17 -42 -40 -48 -52 -8 -18 -5 -16 15 6 14 15 38 39
53 52 40 35 24 31 -20 -6z"/>
<path d="M2789 2863 c11 -22 29 -68 41 -103 63 -188 175 -323 330 -398 87 -43
124 -51 324 -72 69 -7 106 -17 165 -45 84 -40 87 -32 3 10 -57 29 -95 37 -282
60 -106 14 -137 22 -205 55 -146 70 -244 181 -305 344 -39 104 -72 176 -83
183 -5 3 1 -13 12 -34z"/>
<path d="M6535 2779 c-167 -107 -334 -188 -535 -260 -58 -21 -100 -38 -94 -38
36 -2 294 102 446 180 106 54 324 190 303 188 -6 0 -59 -32 -120 -70z"/>
<path d="M6119 2823 c-13 -16 -12 -17 4 -4 16 13 21 21 13 21 -2 0 -10 -8 -17
-17z"/>
<path d="M7406 2815 c-9 -26 -7 -32 5 -12 6 10 9 21 6 23 -2 3 -7 -2 -11 -11z"/>
<path d="M5959 2763 c-13 -16 -12 -17 4 -4 9 7 17 15 17 17 0 8 -8 3 -21 -13z"/>
<path d="M7347 2685 c-52 -102 -146 -228 -201 -270 -19 -15 -70 -42 -113 -61
-43 -18 -72 -34 -64 -34 24 0 135 53 178 85 73 55 180 202 232 319 36 81 19
60 -32 -39z"/>
<path d="M5609 2747 c-30 -13 -83 -40 -117 -61 -35 -21 -75 -42 -90 -46 -18
-6 -21 -9 -8 -9 10 -1 57 21 105 49 111 64 170 84 229 77 26 -2 56 -8 67 -12
16 -6 18 -5 8 5 -6 7 -40 14 -75 16 -50 4 -74 0 -119 -19z"/>
<path d="M3225 2730 c-64 -67 -22 -165 69 -165 75 0 115 56 94 131 -11 43 -42
64 -93 64 -33 0 -47 -6 -70 -30z m134 -4 c47 -50 22 -139 -43 -151 -75 -15
-135 59 -102 124 20 38 41 50 87 51 25 0 42 -7 58 -24z"/>
<path d="M6871 2724 c-65 -83 25 -198 117 -150 38 20 52 44 52 91 0 54 -35 85
-99 85 -42 0 -53 -4 -70 -26z m139 -4 c44 -44 16 -131 -47 -147 -29 -7 -81 14
-93 38 -15 27 -12 82 6 107 21 30 104 32 134 2z"/>
<path d="M5843 2723 c9 -2 25 -2 35 0 9 3 1 5 -18 5 -19 0 -27 -2 -17 -5z"/>
<path d="M5980 2688 c-50 -27 -61 -29 -126 -25 -40 3 -85 12 -102 21 -17 9
-37 16 -44 16 -7 0 7 -10 32 -21 26 -13 75 -23 115 -26 62 -5 77 -2 122 21 28
14 54 30 58 36 3 5 5 9 3 9 -2 -1 -28 -15 -58 -31z"/>
<path d="M5113 2701 c31 -5 83 -20 115 -34 63 -28 145 -50 136 -36 -3 5 -15 9
-27 9 -12 0 -53 14 -92 31 -44 19 -92 32 -130 34 l-60 4 58 -8z"/>
<path d="M5648 2696 c-20 -7 -73 -37 -118 -65 -145 -93 -162 -95 -313 -40 -95
35 -119 36 -199 5 -35 -13 -76 -29 -93 -34 -16 -6 -22 -11 -13 -11 9 -1 52 13
95 29 42 17 89 30 103 30 14 0 70 -16 125 -35 55 -19 111 -35 125 -35 34 0 88
26 194 94 49 31 97 56 107 56 10 0 21 5 24 10 7 12 9 12 -37 -4z"/>
<path d="M4475 2675 c-38 -13 -63 -24 -54 -24 8 -1 43 9 78 20 79 27 113 19
191 -46 66 -54 100 -71 160 -79 42 -5 40 -5 -15 12 -34 10 -81 33 -105 50
-100 73 -119 83 -151 87 -20 2 -63 -6 -104 -20z"/>
<path d="M4950 2670 c-41 -16 -68 -29 -60 -29 8 -1 49 12 90 29 41 16 68 29
60 29 -8 0 -49 -13 -90 -29z"/>
<path d="M3720 2470 c-11 -11 -20 -28 -19 -37 0 -14 2 -15 6 -3 12 31 37 50
68 50 58 0 88 -42 72 -101 -15 -58 -113 -57 -137 1 -16 37 -25 33 -10 -4 14
-39 72 -62 112 -45 55 23 68 112 21 147 -27 19 -90 15 -113 -8z"/>
<path d="M6369 2471 c-32 -26 -33 -92 -1 -123 31 -31 98 -30 124 2 24 30 23
81 -3 114 -25 32 -84 36 -120 7z m108 -13 c47 -44 19 -118 -46 -118 -52 0 -75
20 -75 63 0 70 71 102 121 55z"/>
<path d="M5755 2454 c-111 -24 -350 -54 -425 -54 -22 0 -40 -4 -40 -8 0 -9
236 11 345 29 96 16 247 48 253 54 8 8 -14 4 -133 -21z"/>
<path d="M4560 2340 c155 -33 301 -42 585 -38 168 3 295 10 335 19 36 7 58 14
49 16 -9 2 -36 -1 -60 -7 -24 -7 -165 -14 -313 -17 -275 -6 -436 4 -579 33
-38 8 -76 14 -85 13 -9 -1 21 -9 68 -19z"/>
<path d="M3050 2334 c0 -10 146 -74 202 -88 31 -8 108 -22 170 -31 62 -9 134
-25 160 -35 27 -10 46 -14 43 -10 -10 15 -99 39 -205 55 -144 21 -212 40 -297
80 -40 19 -73 32 -73 29z"/>
<path d="M6880 2310 l-35 -7 35 -1 c19 0 44 3 55 8 l20 9 -20 -1 c-11 0 -36
-4 -55 -8z"/>
<path d="M6665 2290 c-16 -4 13 -5 65 -2 52 3 97 6 99 8 8 7 -134 2 -164 -6z"/>
<path d="M6553 2255 c-29 -13 -53 -27 -53 -30 0 -3 14 2 32 11 17 9 47 22 67
29 20 8 29 14 21 14 -8 1 -39 -10 -67 -24z"/>
<path d="M4271 2247 c-19 -7 -41 -23 -49 -37 l-14 -25 19 23 c39 47 136 43
162 -7 40 -74 -24 -151 -107 -129 -26 7 -38 18 -52 51 -10 22 -16 45 -13 51 3
5 1 6 -5 2 -12 -7 1 -59 22 -85 38 -49 134 -44 161 9 32 61 11 120 -51 146
-18 8 -35 14 -36 13 -2 0 -18 -5 -37 -12z"/>
<path d="M5862 2243 c-39 -19 -54 -44 -54 -88 0 -46 18 -74 59 -91 27 -12 42
-13 69 -4 44 15 64 45 64 95 -1 49 -16 70 -63 90 -43 18 -35 18 -75 -2z m103
-28 c33 -32 34 -89 3 -122 -29 -31 -92 -32 -125 -1 -31 29 -32 92 -1 125 30
32 90 32 123 -2z"/>
<path d="M6469 2203 c-13 -16 -12 -17 4 -4 9 7 17 15 17 17 0 8 -8 3 -21 -13z"/>
<path d="M6686 2209 c-101 -24 -177 -83 -367 -285 -73 -77 -183 -141 -294
-169 -69 -18 -105 -15 -288 21 -70 14 -133 24 -139 22 -6 -2 68 -19 165 -37
164 -32 179 -33 241 -21 75 14 187 64 256 115 26 19 82 75 124 125 117 136
217 202 346 226 44 8 53 12 30 12 -19 0 -52 -4 -74 -9z"/>
<path d="M3745 2197 c26 -16 74 -65 154 -156 71 -81 162 -153 230 -183 71 -30
56 -16 -27 27 -80 41 -195 145 -260 234 -30 41 -91 92 -109 90 -4 0 1 -6 12
-12z"/>
<path d="M4840 2152 c-39 -19 -50 -30 -49 -52 0 -10 4 -7 11 6 15 32 82 60
116 48 23 -8 27 -16 30 -56 4 -62 -22 -91 -76 -86 -31 2 -40 9 -54 38 -10 19
-18 29 -18 22 0 -17 20 -55 34 -64 6 -4 27 -8 47 -8 51 0 79 33 79 93 0 72
-46 95 -120 59z"/>
<path d="M3650 2148 c30 -32 237 -213 309 -270 90 -73 151 -104 249 -129 111
-28 214 -25 342 10 58 16 97 30 88 30 -9 1 -59 -10 -110 -24 -115 -31 -213
-32 -323 -5 -127 33 -173 63 -410 270 -120 106 -176 151 -145 118z"/>
<path d="M5309 2143 c-13 -15 -12 -15 8 -5 36 19 80 15 97 -10 20 -29 20 -82
0 -102 -22 -23 -86 -20 -112 4 -12 12 -22 16 -22 11 0 -20 45 -41 87 -41 32 0
46 5 57 22 22 31 20 80 -5 112 -25 31 -88 37 -110 9z"/>
<path d="M6331 2066 c-43 -62 -160 -167 -222 -199 -30 -15 -43 -25 -29 -21 71
19 219 144 267 227 30 50 21 47 -16 -7z"/>
<path d="M5521 1896 c3 -3 39 -8 80 -10 41 -3 117 -17 169 -31 111 -31 201
-41 250 -27 28 8 20 9 -40 5 -63 -4 -92 0 -185 27 -98 28 -290 53 -274 36z"/>
<path d="M4723 1883 c15 -2 37 -2 50 0 12 2 0 4 -28 4 -27 0 -38 -2 -22 -4z"/>
<path d="M5380 1876 c-208 -61 -248 -66 -364 -41 -83 18 -100 13 -24 -6 88
-23 220 -17 316 15 46 15 111 31 145 35 56 8 58 9 17 9 -25 0 -65 -5 -90 -12z"/>
<path d="M4570 1859 c-41 -10 -101 -22 -133 -26 -32 -3 -60 -9 -63 -14 -5 -9
42 -3 141 18 130 28 180 41 155 41 -14 0 -59 -8 -100 -19z"/>
<path d="M4840 1870 c19 -4 49 -10 65 -14 27 -6 27 -5 -5 8 -19 8 -48 14 -65
14 -29 0 -29 -1 5 -8z"/>
<path d="M4221 1826 c2 -2 36 -6 74 -9 44 -4 59 -3 40 2 -30 9 -122 14 -114 7z"/>
<path d="M5445 1811 c-19 -4 -1 -7 53 -8 46 -1 82 0 80 2 -9 7 -107 12 -133 6z"/>
<path d="M4695 1800 c-33 -5 -27 -7 35 -7 85 -2 123 -9 264 -53 54 -16 113
-29 130 -29 25 1 22 3 -14 9 -25 4 -88 21 -140 38 -85 27 -125 36 -210 46 -14
2 -43 0 -65 -4z"/>
<path d="M5300 1765 c-47 -19 -80 -34 -73 -35 6 0 51 16 100 35 48 19 81 34
73 34 -8 0 -53 -15 -100 -34z"/>
<path d="M3510 1510 c23 -15 261 -108 295 -115 17 -3 -33 18 -110 48 -77 29
-150 59 -162 65 -26 14 -44 16 -23 2z"/>
<path d="M3843 1384 c14 -14 353 -107 370 -101 6 2 -16 9 -49 16 -32 8 -117
31 -188 52 -136 41 -143 43 -133 33z"/>
<path d="M4255 1269 c38 -11 290 -56 413 -74 110 -16 153 -17 452 -14 l225 3
-330 6 -330 7 -220 41 c-215 41 -270 49 -210 31z"/>
<path d="M5890 1269 c-78 -20 -336 -60 -437 -69 l-108 -9 115 5 c63 2 178 15
255 29 150 27 263 53 230 53 -11 0 -36 -4 -55 -9z"/>
</g>
</svg>
